<?xml version="1.0" encoding="UTF-8"?>
<!DOCTYPE svg PUBLIC "-//W3C//DTD SVG 1.1//EN" "http://www.w3.org/Graphics/SVG/1.1/DTD/svg11.dtd">
<!-- Creator: CorelDRAW -->
<svg xmlns="http://www.w3.org/2000/svg" xml:space="preserve" width="292.403mm" height="104.143mm" version="1.1" style="shape-rendering:geometricPrecision; text-rendering:geometricPrecision; image-rendering:optimizeQuality; fill-rule:evenodd; clip-rule:evenodd"
viewBox="0 0 10230.64 3643.78"
 xmlns:xlink="http://www.w3.org/1999/xlink"
 xmlns:xodm="http://www.corel.com/coreldraw/odm/2003">
 <defs>
  <style type="text/css">
   <![CDATA[
    .str0 {stroke:#BFDAF2;stroke-width:69.98;stroke-miterlimit:22.9256}
    .str1 {stroke:#BFDAF2;stroke-width:104.96;stroke-linecap:round;stroke-linejoin:round;stroke-miterlimit:22.9256}
    .fil2 {fill:none}
    .fil0 {fill:#0A2647}
    .fil1 {fill:#BFDAF2}
   ]]>
  </style>
 </defs>
 <g id="Camada_x0020_1">
  <metadata id="CorelCorpID_0Corel-Layer"/>
  <g id="_2429910008064">
   <path class="fil0" d="M1651.47 454.02c-34.45,0 -62.02,-7.97 -94.62,-10.09 -36.77,-2.39 -88.24,0.31 -124.44,7.27 -20.53,3.94 -37.56,2.66 -59.5,2.74 -25.49,0.08 -34.64,7.61 -53.22,8.94l-112.47 11.66c-12.97,1.96 -10.43,4.04 -23.09,6.82 -8.78,1.92 -20.04,1.23 -29.07,3.53l-95.36 29.06c-29.87,13.22 -74.09,11.63 -110.21,14.54l-131.44 22.3c-25.99,7.6 -52.98,10.46 -78.67,16.07 -10.78,2.35 -10.58,4.42 -23,6.75 -11.27,2.11 -17.84,0.98 -27.85,4.73 -13.03,4.88 -8.92,4.97 -26.56,5.98 -20.18,1.16 -10.97,2.58 -25.37,7.23 -10.44,3.38 -17.12,0.54 -27.56,2.19 -11.51,1.82 -10.84,6.69 -24.19,8.2 -11.15,1.26 -15.55,-1.28 -27.4,2.3 -14.95,4.52 -6.17,5.88 -25.7,6.94l-102.97 21.26c-9.29,2 -11.65,5.21 -22.55,7.22l-49.59 12.46c-10.91,3.68 -12.35,4.18 -25.17,7.65 -39.5,10.71 -77.6,26.68 -111.62,42.36 -27,12.44 -28.83,35.33 -5.41,54.4 5.7,4.65 38.43,9.78 49.81,12.36 17.93,4.07 40.39,1.83 60.11,2.24 79.34,1.67 163.41,5.58 239.98,-5.42 -8.31,6.35 -6.89,10.4 -28.02,24.79 -5.23,3.56 -9.67,8.11 -14.43,12.09l-73.51 59.86c-79.46,63.43 -124.27,118.57 -186.75,189.57 -27.21,30.92 -57.13,74.81 -78.49,111.03l-48.68 87.72c-18.11,36.94 -37.45,75.54 -48.09,114.66 -2.45,9.03 -4.99,11.01 -7.39,19.27l-12.02 41.35c-2.88,15.22 -3.29,7.85 -7.09,19.54 -3.32,10.21 -0.88,13.9 -3.64,23.13 -2.45,8.2 -5.44,7.98 -6.96,19.55 -2.98,22.76 -16.61,71.93 -18.33,91.46 -1.62,18.41 -5.97,30.57 -8.06,45.03 -23.2,160.8 -32.02,365.65 -11.03,528.04 2.3,17.81 0.24,32.35 3.47,50.04 2.99,16.42 5.06,32.84 6.41,49.51 1.88,23.11 5.02,28.74 8.14,48.25 4.02,25.09 6.35,72.36 14.92,94.88 4.74,12.49 2.73,8.13 4.27,22.43 1.59,14.72 4.76,12.31 7.4,22.04 2.86,10.52 -0.38,12.68 3.76,23.25 19,48.58 29.57,86.41 52.6,139.69 11.48,26.56 24.77,51.85 36.5,76.14l30.66 55.26c24.67,44.23 65.96,108.76 96.35,146.61l98.36 123.81c15.47,17.85 37.25,38.88 52,57.48 28.18,35.53 60.97,68.18 93.46,99.15 56.23,53.6 97.76,90.5 161.33,140.79 53.26,42.13 110.75,75.38 170.5,108.03 11.53,6.3 22.44,12.47 34.69,18.49l131.89 60.81c47.77,19.35 95.93,34.19 144.4,51.16 12.46,4.36 27.85,10.01 39.97,13.3l86.97 22.53c16.23,5.37 31.63,5.19 45.31,11.04 15.76,6.73 30.02,4.89 45.7,10.76 18.99,7.1 28.35,2.12 46.57,9.57 18.75,7.66 30.58,0.69 46.86,6.4 21.4,7.5 26.95,5.07 49.7,6.7 18.82,1.35 23.82,8.71 47.28,8.87 17.71,0.12 36.66,-0.26 52.72,3.65 59.48,14.49 252.23,10.69 327.38,7.14 38.54,-1.82 63.22,-2.39 99.24,-8.53 17.95,-3.06 32.93,-1.37 51.15,-2.31 20.65,-1.07 19.47,-9 44.2,-9.04 29.97,-0.05 22.88,-0.12 46.31,-7.07 17.85,-5.3 26.39,2.28 46.88,-6.32 17.03,-7.15 27.71,-1.59 45.45,-8.01 20.62,-7.46 89.39,-19.8 127.38,-32.43 8.45,-2.81 13.04,-1.71 22.17,-4.56 7.16,-2.24 10.7,-4.28 19.88,-6.83 11.33,-3.13 30.03,-8.05 41.21,-11.98l203.98 -77.4c94.79,-40.71 185.73,-90.4 272.3,-145.54 5.54,-3.53 10.79,-7.87 15.67,-11.06 6.1,-3.99 9.16,-5 16.25,-10.29l62.27 -44.42c66.22,-45.46 143.64,-117.51 200.86,-175.35 45.44,-45.93 83.08,-90.94 122.52,-144.14 42.63,-57.5 78.87,-118.17 112.34,-180.86 2.1,-3.93 2.78,-6.11 4.82,-9.99l22.56 -45.71c20.7,-42.51 36.74,-88.81 54.65,-131.77l20.32 -59.79c3.69,-9.92 1.51,-12.54 5.05,-21.54l12.57 -40.88c4.87,-11.73 1.54,-13.64 4.2,-25.43 2.06,-9.12 5.12,-10.85 6.87,-19.71 7.27,-36.88 16.96,-72.66 21,-112.22 1.78,-17.46 5.06,-28.24 7.06,-46.47 12.04,-110.02 18.86,-227.4 9.24,-339.05 -3.01,-34.94 -4.96,-86 -12.06,-118.61 -7.39,-33.95 -9.31,-80.76 -19.01,-111.47 -3.79,-12 -3.82,-14.47 -5.41,-26.9 -2.02,-15.78 -4.63,-12.24 -7.66,-24.98 -3.17,-13.33 1.04,-16.43 -4.24,-28.45 -2.85,-6.48 -3.54,-2.64 -5.38,-12.21 -1.17,-6.12 -0.12,-10.37 -1.36,-16.61 -2.61,-13.09 -5.44,-5.91 -8.39,-24.13l-89.7 -244.98c-18.43,-35.43 -32.68,-69.3 -53.47,-103.56 -57.63,-94.94 -119.65,-179.6 -193.91,-262.2 -83.52,-92.91 -175.64,-176.25 -273.52,-253.88 -9.3,-7.38 -32.51,-22.79 -37.38,-30.21 9.86,-16.2 9.16,-7.94 27.35,-13.6l46.65 -15.5c9.21,-1.58 9.49,0.64 18.41,-2.49 9.31,-3.27 3.7,-4.25 14.16,-6.32 7.39,-1.46 14.25,-0.09 22.4,-1.52 15.77,-2.75 11.34,-6.4 33.2,-8.33 15.1,-1.35 22.66,-0.45 36.84,-1.39 26.28,-1.75 53.82,-7.13 78.92,-7.13l257.43 4.36c17.8,0.69 33.09,4.84 48.25,-3.58 13.88,-7.71 26.1,-17.02 26.1,-36.33 0,-16.2 -11.12,-21.59 -20.75,-29.53 -23.32,-19.22 -88.17,-53.82 -118.87,-58.9 -21.63,-3.58 -18.41,-7.46 -41.03,-9.43 -15.95,-1.39 -7.81,-2.33 -19.97,-6.63 -13.33,-4.71 -31.42,-0.79 -46.06,-4.34 -52.91,-12.82 -148.89,-6.7 -206.55,-6.7 -20.17,0 -35.61,7.13 -53.47,8.64 -20.88,1.77 -39.1,-2.47 -58.86,3.47 -23.45,7.05 -40.01,2.9 -55.19,7.14 -14.23,3.98 -5.99,5.94 -25.03,7.54 -17.13,1.44 -13.74,1.06 -26.35,6.16l-204.72 50c-32.72,0 -48.95,-8.37 -77.02,-17.75 -28.16,-9.4 -68.68,-25.21 -98.92,-28.53 -18.65,-2.05 -25.25,-7.95 -40.58,-9.52 -7.57,-0.77 -15.34,0.15 -22.79,-1.13 -7.94,-1.37 -10.61,-4.31 -20.04,-6.54 -15.75,-3.72 -32.63,-0.91 -48.8,-1.69 -15.41,-0.75 -29.1,-6.72 -44.82,-8.38 -44.9,-4.73 -335.45,-0.52 -406.17,-0.52 -7.72,-16 -16.61,-38.14 -19.83,-56.51 -12.33,-70.36 -16.07,-149.41 -8.22,-221.58 5.51,-50.71 21.49,-126.1 -27.71,-157.12 -27.19,-17.15 -70.04,-10.26 -96.53,6.64 -32.32,20.61 -61.38,40.81 -87.32,69.78 -11.57,12.92 -24.1,29.44 -33.38,43.64 -4.85,7.43 -10.24,17.52 -13.72,24.77 -19.26,40.18 -7.18,27.82 -3.01,59.39 2.18,16.56 3.81,17.21 7.07,31.57l10.34 69.57c2.33,22.12 2.82,53.43 3.85,76.55 1.43,32.44 12.31,62.18 -12.17,62.18l-0.01 -0.01z"/>
   <path class="fil1" d="M3283.72 1470.1c0,-22.61 -67.83,-101.13 -85.06,-119.36 -50.75,-53.7 -97.44,-95.73 -152.21,-143.95 -9.62,-8.47 -19.47,-13.82 -28.69,-21.69 -11.81,-10.08 -14.85,-13.17 -28.28,-22.02 -40.33,-26.57 -77.98,-56.09 -120.1,-81.38 -8.96,-5.38 -19.78,-11.8 -29.69,-17.71l-106.05 -45.18c-26.62,-5.17 -52.08,-16.87 -78.23,-19.25l-124.03 -24.29c-6.57,-1.89 -12.68,-2.33 -19.51,-4.18 -32.07,-8.71 -62.23,-21.71 -92.76,-34.6l-143.35 -58.84c2.7,-10.16 1.7,-7.98 7.76,-13.74 17.1,-16.26 46.4,-34.19 67.07,-48.42 24.04,-16.56 49.78,-37.14 75.76,-51.76l36.65 -19.64c26.84,-11.44 47.56,-15.41 68.36,-23.55 18.39,-7.21 24.17,-3.47 38.95,-8.33 23.89,-7.87 50.79,-7.13 78.6,-13.19 27.84,-6.06 91,-7.66 126.72,-12.68 49.67,-6.98 75.45,-18.41 120.43,13.09 13.3,9.31 20.37,18 34.07,28.17 108.82,80.69 202.09,170.17 293.05,269.93 24.16,26.49 44.07,57.84 68.56,85.47l52.46 74.72c42.97,72.76 88.33,144.12 120.58,223.05l22.38 54.7c3.17,6.67 0.31,-2.5 4.71,10.17l25.18 72.56c4.41,10.65 10.99,36.05 13.87,48.36l13.92 48.08c14.14,43.21 34.26,158.6 39.52,209.86 2.11,20.57 0.62,36.8 4.91,56.88 11.13,52.17 5.49,163.66 5.49,219.71 0,29.21 -15.07,143.61 -18.99,176.4 -9.92,82.95 -33.09,163.23 -56.25,240.24l-19.34 54.6c-2.99,7.01 -1.17,1.33 -4.07,7.71 -12.58,27.67 -18.52,52.56 -32.95,79.72 -4.1,7.72 -4.03,5.94 -8.32,15.31 -37.63,82.2 -88.88,157.88 -143.03,230.28 -14.9,19.92 -29.59,35.58 -45.43,55.16 -13.48,16.66 -32.57,35.75 -46.97,50.93 -48.84,51.46 -100.07,98.82 -156.69,142.43 -95.3,73.4 -222.83,157.62 -336.5,205.76 -58.41,24.73 -113.63,54.05 -175.49,73.19l-246.98 72.93c-11.41,3.91 -24.17,3.06 -41.4,8.91l-62.68 11.55c-16.82,1.47 -28.75,6.16 -42.08,8.07l-177.41 20.41c-16.87,1.61 -30.99,0.93 -47.74,3.12 -73.29,9.6 -209.71,4.35 -286.29,-3.29 -31.25,-3.11 -60.1,-5.87 -90.57,-9.43 -51.74,-6.03 -99.79,-13.35 -149.4,-25.61 -9.61,-2.37 -14.57,-1.44 -24.09,-2.65l-56.37 -14.63c-10.43,-3.96 -12.09,-1.7 -22.67,-3.98 -8.2,-1.76 -10.83,-4.88 -17.08,-6.53 -9.29,-2.45 -13.92,-0.53 -23.27,-3.59 -10.28,-3.37 -5.13,-4.13 -17.37,-6.59l-39.01 -10.79c-19.08,-3.94 -87.35,-30.02 -113.06,-38.32 -65.48,-21.15 -144.55,-59.55 -206.49,-92.63 -64.85,-34.63 -139.29,-83.46 -195.41,-130.51 -11.11,-9.32 -16.5,-15.75 -26.98,-23.17 -50.66,-35.85 -136.02,-125.22 -177.71,-172.03 -17.02,-19.1 -31.46,-35.24 -46.47,-54.21l-127.17 -169.03c-0.36,-0.55 -0.8,-1.28 -1.15,-1.84l-24.27 -37.95c-1.78,-2.61 -2.37,-2.93 -5.01,-6.82 -3.15,-4.65 -6.44,-10.55 -10.17,-16.33 -24.95,-38.76 -52.72,-84.98 -71.51,-127.18 -10.64,-23.89 -22.9,-45.34 -29.97,-70.74 -10.8,-38.81 -28.91,-74.99 -36.32,-114.73 -3.33,-17.85 -6.69,-20.12 -9.44,-40.98 -3.38,-25.56 -14.88,-57.41 -16.94,-83.58 -1.35,-17.12 -1.96,-29.15 -5.99,-44.42 -4.81,-18.24 -10.46,-113.87 -12.35,-138.85 -5.58,-74.03 -3.63,-194.33 0.49,-267.02l10.03 -129.12c3.76,-20.33 7.11,-39.04 7.62,-60.37 0.76,-31.88 11.87,-86.17 18.62,-117.76 6.62,-31.02 19.9,-80.85 31.31,-107.84 4.04,-9.56 3.31,-13.48 8.29,-24.31l30.5 -73.24c22.44,-45.82 47.7,-94.1 74.25,-136.19 5.58,-8.85 6.86,-12.18 12.66,-19.87 34.32,-45.54 66.56,-93.93 107.02,-135.83 49.85,-51.61 99.56,-107.27 158.24,-149.84 42.61,-30.91 79.68,-69.18 137.97,-104.94 7.75,-4.75 14.4,-8.65 20.45,-12.17l23.12 -12.4c7.32,-3.82 4.85,-1.92 12.78,-4.87 10.58,-3.95 4.56,-2.39 12.03,-5.92l81.84 -21.66c20.29,-1.69 14.88,-0.76 29.83,-5.9 10.98,-3.78 19.74,-2.53 32.04,-3.57 21.9,-1.85 25.2,-8.95 59.29,-8.74l71.1 -3.17c22.28,0 41.14,2.65 62.1,3.16 33.41,0.81 31.8,1.46 60.56,7.63 10.9,2.33 19.07,0.26 30.18,2.54l53.75 14.36c9.88,3.7 18,2.6 30.17,4.84 12.08,2.21 12.6,5.38 25.24,7.76 12.37,2.34 18.82,-0.09 29.06,3.65 33.62,12.28 126.62,25 126.62,77.73 0,12.09 -10.1,8.54 -23.48,12.13l-56.17 14.84c-14.46,2.82 -17.08,5.68 -29.55,9.02 -36.09,9.67 -80.47,28.88 -114.67,45.23 -0.63,0.3 -1.41,0.64 -2.05,0.94 -0.64,0.3 -1.44,0.61 -2.09,0.9l-82.96 44.33c-34.03,20.62 -78.42,50.35 -107.06,76.73 -6.87,6.33 -10.81,11.29 -16.52,18.91 -29.97,40.01 -49.86,63.76 -73.33,110.49 -9.55,19.02 -22,42.21 -28.31,63.42l-11.56 32.85c-4.52,12.29 -4.84,6.46 -7.11,20.25 -1.88,11.41 1.11,5.44 -4.22,15.92 -8.52,16.75 -3.53,10.34 -8.17,27.3l-15.61 58.39c-2.03,12.84 -0.01,22.03 -3.96,34.66 -5.64,18.03 -14.64,35.48 0.61,53.15 16.84,19.52 33.9,8.62 51.52,-4.02 41.54,-29.8 167.58,-125.43 206.55,-160.77l42.18 -31.9c46.5,-34.51 94.53,-65.33 147.72,-89.29l320.2 -135.96 117.39 -30.68c22.97,-2.02 13.29,0.18 31.91,-6.57 10.83,-3.93 18.6,-1.59 31.62,-4.41 20.63,-4.47 36.23,10.24 58.06,22.4 5.86,3.26 1.05,0.74 5.55,3.31 0.57,0.32 1.3,0.78 1.88,1.11l5.92 3.01c18.99,9.47 42.12,22.5 63.51,28.18 32.59,8.65 63.55,22.39 99.06,28.36 11.53,1.94 18.72,5.01 28.84,6.73 11.12,1.89 22.35,2.46 33.85,4.72 53.17,10.48 168.22,22.22 229.16,25.53 21.28,1.15 41.79,7.37 65.13,8.83 15.62,0.98 17.68,4.12 31.46,7.07 12.04,2.58 23.05,0.79 32.27,3.48 17.02,4.97 9.38,4.85 31.02,7.52l53.75 17.2c21.16,4.92 33.37,13.88 53.22,20.86l289.67 131.07c73.87,35.68 141.82,63.16 212.11,101.64l139.99 79.41c20.55,5.43 39.31,-10.9 39.31,-30.49l0.01 -0.01zm-1291.33 -847.59c-2.6,-7.38 -3.85,-8.18 -5.75,-17.78l-11.06 -39.25c-1.59,-5.3 -15.27,-29.44 -6.82,-36.98 9.78,-8.73 343.42,-2.42 383.04,4.19l132.19 19.01c14.88,4.78 26.07,4.8 39.76,8.95l-4.3 2.34c-2.99,1.32 -2.12,1.02 -4.53,1.85l-87.74 22.03c-7.45,2.88 -5.36,4.07 -14.92,5.78 -35.69,6.41 -12.49,5.02 -29.59,8.81l-234.08 65.28c-40.87,7.55 -97.52,23.13 -141.63,18.33l-14.57 -62.57 -0 0zm-619.32 -85.45c78.43,-9.96 165.28,-10.84 245.8,-5.9 46.86,2.88 41.55,5.22 41.82,20.27 0.32,17.23 -6.49,106.54 -12.17,114.72 -15.74,16.67 -150.43,-43.45 -181.05,-57.8l-111.64 -45.47c-42.48,-16.73 -30.73,0.36 -38.76,-17.04l56 -8.79 -0 0zm337.66 -340.77c-13.09,-24.5 9.5,-44.04 25.21,-60.59 14.89,-15.7 33.99,-34.97 51.03,-46.78 7.22,-5.01 31.6,-19.56 42.66,-20.27 14.82,-0.95 14.74,4.16 14.93,17.69 0.47,32.46 -8.98,53.2 -9.49,86.14 -0.36,24.23 1.57,38.84 -3.5,61.67 -15.05,67.79 3.37,105.1 3.65,130.87 0.28,24.84 5.19,26.26 8.75,44.74l10.93 42.18c10.47,44.07 33.9,84.68 47.01,127.97 10.43,34.42 23.21,77.32 25.25,113.98 2.92,52.44 28.68,102.45 -24.54,159.54 -31.27,33.56 43.02,17.38 63.35,-34.67l9.07 -26.31c12.66,-36.16 -20.68,-39.87 34.86,-39.27 45.58,0.49 44.95,-8.59 66.31,-8.87 -10.28,21.19 -60.85,45.31 -55.7,72.03 9.66,2.51 10.68,1.33 19.64,-3.12 26.34,-13.05 51.25,-30.93 77.88,-43.77l25.72 -12.82c4.08,-2.02 6.29,-2.65 10.29,-4.58l81.27 -37.05c62.72,-26.2 84.91,-39.6 159.11,-54.28l130.23 -29.67c8.51,-1.72 11.56,-4.71 19.97,-6.69 9.56,-2.25 15.13,-0.49 23.95,-2.82 10.66,-2.82 7.14,-5.48 19.36,-7.19 11.07,-1.55 12.25,1.3 23.84,-2.84 10.47,-3.74 6.61,-5.18 20.38,-6.31 22.67,-1.86 21.84,-7.42 41.27,-9.17l107.11 -26.2c8.47,-3.33 13.04,-2.11 22.61,-4.04 8.75,-1.77 9.74,-4.75 19.66,-7l268.54 -51.24c35.46,-5.8 172.15,-6.43 207.17,-0.31 15.75,2.75 31.32,4.38 47.59,5.65 24.45,1.92 23.9,13.84 36.63,10.04 -34.77,3.78 -72.7,2.16 -107.89,2.16 -36.03,0 -68.5,2.37 -103.68,2.75 -60.74,0.66 -107,7.37 -164.41,25.39l-274.01 78.37c-22.82,0.7 -25.35,4.88 -45.54,7.9 -16.23,2.42 -34.58,-0.7 -50.79,2.57 -19.42,3.92 -26.78,6.97 -48.88,7.41 -20.49,0.41 -28.66,5.61 -45.26,8.01 -9.26,1.34 -15.52,0.54 -24.13,2.56l-72.62 22.11 -113.3 61.57c-4.99,3.29 -8.12,7.04 -14.49,12.15l-63.43 46.18c-11.59,8.81 -18.04,14.8 -29.88,23.44 -113.06,82.54 -104.98,18.64 -209.3,57.49 6.1,13.22 17.05,17.04 30.27,18.35 19.47,1.92 16.72,8.23 38.55,8.84 27.04,0.75 19.91,3.81 39.43,7.87 12.58,2.61 26.19,1.05 40.1,4.48l114.08 27.99c34.63,10.24 61.62,29.78 95.64,43.67l67.06 24.72c8.79,2.18 10.63,0.41 20.01,3.87l37.27 10.06c24.63,8.72 22.08,4.51 38.47,8.98 5.67,1.55 9.07,4.99 17,6.57 8.19,1.63 14.07,0.27 22.05,1.74 7.87,1.46 7.69,3.22 14.93,5.71 14.78,5.08 21.58,0.1 40.09,7.3 17.54,6.82 54.49,10.45 76.25,18.42l33.42 11.16c59.19,21.53 102.87,51.53 148.32,85.64l157.83 123.65c5.47,4.19 20.6,14.53 19.05,20.36l-6.37 -0.68c-5.49,-2.04 0.04,-0.12 -7.26,-4.04l-234.74 -109.25c-32.9,-16.35 -92.9,-38.33 -130.16,-53.45 -6.3,-2.55 -6.24,-3.87 -16.35,-7.24l-100.75 -38.64c-7.54,-3.11 -6.72,-3.69 -14.67,-5.92 -31.67,-8.9 -80.19,-18.66 -109.46,-29.78l-116.03 -44.06 -277.28 -66.41c-12.72,-2.17 -21.28,-6.51 -38.21,-9.11 -17.85,-2.74 -39.98,-14.71 -57.07,-5.12 11.51,22.32 85.11,45.31 113.17,55.66 7.84,2.88 5.1,3.25 12.47,5.39l43.96 12.21c10.82,3.67 2.51,2.49 12.15,5.7 9.33,3.1 20.7,2.17 28.31,6.95 -6.71,5.79 1.64,2.54 -11.47,3.51 -32.94,2.44 -34.1,-2.6 -57.61,-8.25 -8.94,-2.15 -15.84,-0.46 -24.98,-1.74 -10.45,-1.48 -11.83,-4.76 -19.46,-7.04 -7.21,-2.16 -16.2,-2.02 -22.9,-3.9l-60.27 -19.71c-4.74,-1.69 -13.15,-5.34 -18.82,-7.75 -87.71,-37.22 -101.35,-75.54 -144.96,-58.19 -28.09,11.18 -62.23,12.53 -92.56,14.39 -15.9,0.98 -30.54,6.07 -45.05,7.95 -47.44,6.12 -77.44,25.96 -116.97,42.9l-162.91 74.24c-68.93,32.52 -127.74,53.5 -194.57,95.64 -7.19,4.53 -9.02,5.98 -16.34,10.32 -36.61,21.71 -71.92,51.31 -108.14,78.58 -18.78,14.14 -73.9,63.8 -90.6,67.85 0.45,-0.69 1.05,-1.56 1.33,-2.07l3.29 -6.55c0.3,-0.77 0.51,-1.54 0.78,-2.32l17.97 -47.2c28.56,-62.72 48.38,-85.71 107.7,-120.2l31.52 -18.93c39.41,-26.37 89.9,-48.57 131.5,-72.92l96.65 -57.35c6.55,-4.22 68.88,-41.24 35.83,-41.24 -13.79,0 -100.21,40.95 -121.23,50.67l-44.57 20.54c-36.2,18.56 -79.75,36.18 -112.62,56.17 -11.06,6.73 -78.69,47.22 -85.94,47.97 7.02,-39.19 98.54,-109.85 135.22,-131.92 35.32,-21.26 141.85,-70.15 184.9,-78.77 15.52,-3.11 8.61,-3.17 19.72,-6.94 9.56,-3.25 14.67,-1.28 23.05,-3.76 10.66,-3.15 6.3,-5.3 19.53,-7 12.24,-1.57 10.81,1.24 22.79,-3.79 12.97,-5.44 3.1,-3.62 21.17,-5.73 17.62,-2.06 24.79,-8.65 41.91,-10.51 15.35,-1.67 10.08,-1.11 21.83,-5.65 17.9,-6.91 52.92,-1.95 87.54,-16.05 -5.68,-17.86 -9.36,-14.12 -26.93,-20.37 -46.64,-16.59 -51.98,2.09 -81.71,-51.72l-3.13 -5.76c-0.31,-0.61 -0.65,-1.39 -0.96,-2.01 -1.95,-3.95 -0.99,-2.98 -3.94,-7.89 -1.89,-3.13 -6.72,-10.08 -9.46,-14.08 -25.31,-36.94 -111.62,-64.62 -152.96,-72.25l-146.66 -34.11c-61.88,-17.15 -183.59,-11.01 -246.7,-11.01l-195.49 26.73c-64.69,7.36 -127.2,21.56 -192.23,27.08 -31.86,2.71 -101.57,17.26 -131.36,8.4 6.1,-5.25 12.22,-5.45 20.84,-6.59 8.59,-1.13 11.98,-2.62 18.66,-4.92 34.42,-11.83 218.85,-41.79 275.51,-56.38l79.17 -15.51c21.37,-9.35 20.71,-1.88 40.74,-6.76 23.02,-5.61 10.61,-6.46 39.73,-7.63 20.06,-0.82 21.16,-7.95 38.38,-8.94 67.97,-3.89 74.74,-10.7 157.13,-10.7 87.51,0 82.93,9.99 124.48,10.64 25.95,0.41 18.83,5.79 35.96,8.46 7.84,1.22 15.44,-0.26 22.86,1.11 11.57,2.13 5.03,3.75 16.52,6.97 8.59,2.4 12.94,0.41 21.34,2.55 9,2.31 5.8,3.79 14.17,6.35 7.94,2.44 10.58,0.72 19.93,3.96l172.28 73.42c21.6,10.7 76.72,32.94 102.47,34.91 12.94,0.99 27.46,1.27 38.76,4.19 13,42.26 -5.09,66.81 33.77,111.76 13.44,15.54 30.52,22.07 52.01,22.42 25.96,0.42 52.49,6.28 56.73,-15.25 -13.96,-10.97 -92.14,-8.36 -92.14,-71.09l0 -133.3c0,-20.72 6.05,-29.28 8.29,-44.89 6.4,-44.58 2.99,-105.08 3.72,-150.62 0.79,-49.43 1.9,-101.57 -3.25,-150.84 -1.58,-15.16 -8.76,-25.15 -8.76,-41.71 0,-27.58 12.02,-21.93 32.13,-35.96 24.37,-17 71.72,-69.22 46.95,-99.41 -16.57,7.41 -26.39,21.39 -40.47,34.73 -14.62,13.85 -25.57,25.35 -44.54,32.5l0.01 0z"/>
   <path class="fil0" d="M2136.85 2672.8c2.68,-3.51 1.09,-0.43 3.3,-6.04l51.7 -262.34c4.13,-17.58 6.41,-37.2 11.3,-53.85 15.24,-51.87 -3.28,-63.44 34.66,-63.06l287.54 0.18c51.52,0.01 117.69,-9.01 166.91,-25.56 29.5,-9.92 63.15,-21.73 89.44,-38.13 64.16,-40.03 122.6,-96.74 151.08,-168.8 10.09,-25.52 24.54,-70.69 25.11,-102.27 1.8,-101.81 5.76,-139.5 -34.8,-216.8 -29.61,-56.42 -95.64,-112.11 -154.03,-133.43 -8.73,-3.19 -14.12,-6.53 -23.14,-9.49 -50.13,-16.46 -69.13,-15.59 -106.09,-24.24 -33.95,-7.96 -265.54,-4.07 -312.94,-4.07l-195.7 -0.16c-25.68,1.77 -13.92,20.27 -20.45,41.89 -7.26,24.05 -23.91,122.35 -32.35,160.06l-20.62 106.83c-19.1,102.57 -47.11,223.11 -63.27,321.75l-20.17 107.23c-2.16,28.26 -11.29,57.32 -16.4,81.35 -2,9.41 -2.36,18.55 -4.11,28.25l-51.23 251.36c-1.05,7.78 -0.07,10.16 6.13,12.8 10.23,4.35 39.41,2.47 50.82,2.47 37.07,-0.01 163.53,5.75 177.3,-5.93l-0 0zm-793.47 5.93c34.47,0 23.77,-13.93 38.59,-73.97l34.79 -184.27c7.31,-25.17 26.13,-147.53 36.82,-185.45 7.87,-27.93 23.17,-38.22 44.83,-64.76l397.97 -481.86c16.8,-20.07 33.17,-39.18 49.74,-59.89 8.12,-10.14 46.01,-53.35 48.3,-60.01 -17.63,-8.35 -213.13,-3.63 -248.16,-3.63 -12.37,0 -42.22,44.99 -51.05,55.63l-47.13 59.46c-30.47,42.83 -61.78,77.15 -92.44,117.86l-46.38 60.33c-3.72,4.67 -8.68,9.45 -12.56,14.06l-126.66 160.8c-10.94,-5.69 -13.36,-13.56 -19,-25.45l-97.11 -225.81c-2.23,-6.18 -3.17,-8.4 -5.94,-14.89 -4.58,-10.71 -8.19,-18.4 -12.53,-28.9l-51.85 -119.99c-6.24,-14.03 -19.51,-50.76 -29.8,-53.1l-216.25 0c-16.8,0 -3.67,18.96 0.82,28.9l216.33 482.75c11.01,22.18 19.01,44.6 29.02,65.73 49,103.41 35.14,73.71 7.22,220.99l-44.27 234.24c-3.84,11.73 -14.17,66.4 -12.48,77.15 30.15,8.4 168.44,4.08 209.2,4.08l-0.01 -0.01zm977.36 -928.45c25.84,-9.93 237.55,-3.31 272.75,4.25 56.25,12.08 104.51,46.07 119.73,96.4 1.63,5.38 10.61,56.05 10.61,60.55l-7.7 51.56c-14.23,100.51 -113.03,141 -211.51,141l-236.99 0c-28.85,0 -8.18,-41.7 -2.34,-82.38l55.45 -271.38z"/>
   <path class="fil0" d="M2788.88 3174.06c15.8,6.23 11.84,0.36 29.94,-6.37 29.17,-10.84 84.15,-42 109.77,-59.01 37.35,-24.79 89.37,-60.99 119.17,-91.27 10.8,-10.98 18.89,-16.53 28.27,-25.05 48.82,-44.35 148.76,-161.48 176.67,-214.33 1.64,-3.12 1.29,-2.77 3.14,-5.72l46.82 -77.61 83.45 -189.07c17.08,-48.19 35.39,-101.29 43.07,-152.44 4.69,-31.29 30.68,-160.63 14.47,-186.58 -9.71,5.8 -13.08,25.27 -14.91,38.11 -2.63,18.38 -6.95,24.71 -9.33,44.02l-9.8 43.52c-4.29,24.16 -12.76,44.05 -17.17,59.84 -2.77,9.93 -1.22,13.21 -4.55,22.21l-13.25 37.05c-3.83,10.42 -0.46,10.05 -5.57,20.98l-85.64 198.77c-3.2,6.05 -5.98,12 -9.04,17.68 -1.79,3.31 -2.99,6.08 -5.02,9.85l-22.28 39.91c-3.58,5.97 -7.32,11.09 -10.38,16.1 -27.95,45.66 -36.61,61.95 -72.26,108.52 -8.09,10.57 -14.77,21.03 -22.66,30.64l-22.63 27.86c-22.1,30.38 -70.72,80.05 -99.38,107.76l-54.26 49.63c-44,37.31 -161.04,116.33 -167.8,122.26l-4.4 4.52c-3.76,4.88 -2.38,1.1 -4.45,8.24zm-1570.75 92c-17.38,-5.07 -26.56,-15.92 -36.32,-2.92 6.35,7.02 59.37,36.55 71.52,41.67l16.44 7.5c5.43,2.39 3.54,1.21 8.82,3.09 17.82,6.35 48.19,21.38 74.34,29.11 21.58,6.38 59.82,22.54 85.59,27.14l149.07 34.48c15.2,2.84 26.49,1.23 42.4,5.14l122.2 13.96c58.63,0.38 117.8,11.85 177.05,4.78 23.99,-2.86 61.13,-3.86 86.48,-4.55 68.81,-1.87 46.08,-5.86 83.19,-8.79 80.04,-6.3 107.91,-18.47 172.9,-34.56 24.6,-6.09 102.47,-29.55 111.3,-45.74 -14.22,-8.82 -35.09,4.57 -56.22,5.9 -15.49,0.98 -16.14,4.22 -28.33,7.31 -11.38,2.9 -19.03,0.41 -30.01,2.52 -11.51,2.21 -13.13,6.9 -27.55,7.9 -12.41,0.86 -17.27,-0.9 -30.39,2.31l-117.7 15.55c-58.51,0.03 -122.76,8.87 -192.6,8.87l-197.26 -13.04c-17.1,-3.58 -33.62,-4.31 -51.71,-4.67 -19.45,-0.38 -27.41,-6.61 -44.59,-8.46 -24.72,-2.66 -24.37,1.3 -47.14,-6.33 -17.47,-5.85 -28.42,-0.02 -46.28,-7.12 -18.77,-7.47 -29.48,-2.57 -46.69,-9.58 -10.39,-4.24 -70.39,-15.21 -85.22,-21.45 -11.04,-4.64 -11.72,-1.93 -22.23,-4.44 -7.4,-1.76 -9.99,-4.99 -19.5,-7.15 -14.04,-3.18 -7.92,-0.65 -20.45,-6.01l-101.1 -32.41 -0 -0zm-1033.02 -1446.41l2.97 100.72c-0.05,28.5 -5.01,46.63 14.81,50.2 9.71,-12.23 4.56,-28.65 7.98,-48.31 7.52,-43.18 11.06,-109.61 17.17,-160.5 4.78,-39.82 14.71,-112.68 23.58,-151.09 1.93,-8.4 2.52,-18.24 3.97,-25.72l31.88 -113.31c6.41,-13.75 2.55,-11.42 5.87,-20.77l17.38 -44.79c9.46,-30.84 51.22,-121.4 69.76,-164.47 4.84,-11.25 4.51,-11.79 -0.17,-22.97 -15.3,10.46 -30.37,34.81 -43.48,53.56l-41.89 70.71c-3.06,5.25 -0.06,-1.2 -4.27,7.5l-51.95 123c-7.38,19.41 -18.72,53.92 -22.5,75.41 -2.9,16.42 -7.75,21.63 -9.57,40.14 -2.1,21.26 -7.2,24.68 -9.13,41.49 -2.24,19.57 1.53,27.4 -4.05,46.65 -6.98,24.08 -8.37,117.77 -8.37,142.57l0 -0.01zm141.42 797.59c28.9,52.39 87.08,132.65 133.31,166 2.63,1.9 12.07,8.68 14.02,9.87 9.88,6.01 4.78,4.82 16.37,1.14 -6.06,-20.32 -25.01,-42.03 -36.31,-58.6l-71.04 -112.49c-11.96,-19.6 -21.26,-38.77 -32.46,-59.35 -6.3,-11.57 -9.81,-20.31 -15.44,-32.03 -4.82,-10.04 -10.48,-19.5 -14.46,-29.84l-14.11 -33.34c-4.38,-9.21 -2.79,-7.27 -6.37,-17.53 -4.13,-11.83 -3.05,-3.45 -6.73,-13.78l-42.51 -140.72c-19.24,3.13 -15.52,15.41 -15.39,35.5 0.29,43.72 6.4,84.23 19.82,125.55 2.9,8.93 4.19,9.46 6.88,19.67l62.2 136.23c0.34,0.55 0.82,1.26 1.15,1.82 0.33,0.56 0.76,1.32 1.07,1.89l0.01 0zm2352.86 -1855.14c1.06,14.71 6.04,15.32 16.23,22.36 10.56,7.29 14.95,9.35 25.72,15.71 18.81,11.13 34.34,19.68 52.9,30.16l51.05 28.82c8.74,5.09 17.46,10.07 26.09,15.33 54.85,33.46 121.06,78.74 167.3,120.19 13.13,11.77 32.56,32.38 48.78,34.05 0.23,-31.44 -43.26,-77.28 -64.41,-98.51 -59.78,-60.02 -166.29,-125.38 -244.16,-149.79 -13.05,-4.09 -72.65,-25.31 -79.5,-18.31l0 0zm-1755.43 15.95c-17.21,3.03 -48.75,9.1 -62.54,14.57 -18.6,7.37 -41.74,10.44 -60.29,16.8 -74.35,25.51 -97.65,30.91 -164.9,69.17l-23.23 15.04c-18.45,12.46 -76.67,57.92 -80.78,77.07 -4.01,18.68 8.79,11.15 18.29,5.98 37.28,-20.29 49.36,-32.62 98.42,-55.91l35.71 -17.62c0.64,-0.3 1.44,-0.61 2.1,-0.89l13.95 -6.71c7.69,-3.95 18.3,-6.91 27.56,-10.93l58.24 -21.84c30.39,-8.9 149.6,-60.55 160.06,-74.74 12.47,-16.91 -13.18,-11.65 -22.6,-10zm2575.79 1062.13c15,-33.25 16.24,-116.41 11.75,-159.48 -1.19,-11.39 -4.52,-17.83 -5.74,-29.95 -6.37,-63.53 -4.42,-30.91 -10.52,-60.34 -3.7,-17.83 -6.36,-40.27 -13.93,-57.38 -4.38,-9.89 -4.94,-15.72 -10,-25.47 -12.48,-24.08 -47.59,-96.69 -78,-99.67 -6.49,13.52 3.41,27.64 13.48,48.74 16.42,34.4 42.12,122.55 47.76,156.55 1.88,11.31 0.61,18.07 3.51,29.1 3.09,11.73 5.71,15.69 6.29,29.23 1.15,26.98 8.11,39.94 8.97,59.17 0.5,11.09 -0.89,20.99 1.11,31.56 2.14,11.33 6.34,17.32 7.45,27.97 3.11,30.01 -3.33,35.58 17.87,49.97l0 0.01z"/>
  </g>
  <g>
   <path class="fil2 str0" d="M4055.1 1248.39c31.56,17.69 22.11,-23.24 36.74,-87.18 8.62,-37.68 13.28,-78.29 21.23,-115.16 4.66,-21.61 2.68,-39.64 12.1,-56.1 7.3,-12.74 21.47,-27 29.71,-38.18 84.77,-114.96 182.01,-232.42 266.52,-346.9 8.34,-11.29 26.1,-27.01 26.33,-42.84 -21.99,-6.07 -27.98,9.99 -50.12,39.98 -12.8,17.33 -26.42,35.89 -39.79,52.02 -54.76,66.08 -143.28,188.04 -201.4,263.68 -16.48,21.46 -28.71,43.66 -45.49,49.24 -7.14,-18.38 -13.3,-34.36 -20.46,-50.63 -36.51,-83.02 -72.26,-181.84 -107.45,-263.05l-32.34 -77.03c-4.82,-11.37 -6.77,-17.11 -23.43,-15.49 -0.76,1.13 -7.28,4.3 -2.42,17.28 2.04,5.45 5.86,13.86 8.93,20.98l118.24 281.78c4.52,12.59 11.4,27.04 16.67,39.58 3.25,7.73 4.97,10.53 8.47,18.16 3.43,7.45 5.88,14.6 8.52,21.05 23.11,56.39 11.55,27.68 3.59,92.32 -3.89,31.61 -13.1,65.92 -17.98,97.38 -3.78,24.4 -16.68,78.33 -16.18,99.09l0 0zm2732.84 -652.57l-86.37 513.34c0,93.57 79.91,154.04 173.19,154.04 61.17,0 96.21,0.71 152.23,-22.62 126.47,-52.65 144.55,-159.99 162.58,-293.71 1.43,-10.64 71.52,-521.62 39.44,-348.56 -3.13,16.9 -8.37,40.55 -10.07,55.11 -9.14,78.02 -51.38,264 -56.78,325.38 -1.72,19.59 -6.98,32.43 -9.23,53.05 -14.16,130.31 -107.13,211.72 -236.7,211.72 -49.44,0 -79.5,1.6 -124.16,-22.12 -61.57,-32.71 -76.3,-101.17 -63.53,-166.63 15.97,-81.93 44.63,-233.23 54.52,-306.93 5.58,-41.54 21.38,-110.01 27.04,-153.68 7.28,-56.12 -10.81,-43.83 -22.16,1.6zm1256.94 652.57c25.98,12.67 20.93,-2.41 29.91,-41.17l30.96 -176.43c2.06,-14.72 2.2,-24.59 19.1,-24.59l165.89 0c15.26,0 68.86,103.83 79.22,121.55l55.58 95.47c6.57,10.55 10.75,26.29 22.79,28.6 29.52,5.64 7.8,-19.01 -12.34,-53.88 -17.75,-30.74 -101.52,-171.54 -109.71,-192.45 5.58,-1.85 12.55,-2.23 19.93,-3.83 9.05,-1.97 10.09,-4.29 19.59,-6.92 62.4,-17.34 107.21,-62.11 134.8,-119.98 39,-81.82 62.61,-246.66 -49.69,-295.94 -27.06,-11.88 -58.29,-15.44 -89.08,-15.44l-168.85 0c-30.85,0 -26.47,-4.14 -38.25,66.23l-22.2 131.83c-2.66,16.07 -5.85,27.28 -8.33,44.98l-79.35 441.98 0 0.01zm142.42 -669.26c48.44,-4.71 151.64,-2.97 196.85,4.21 53.27,8.45 96.88,25.51 117.27,83.93 28.71,82.24 -8.77,236.76 -99.26,289.64 -71.82,41.97 -180.3,35.47 -268.72,34.8 -32.59,-0.24 -16.6,-9.1 -8.54,-69.04 3.62,-26.96 10.88,-57.99 16.07,-84.83l29.36 -171.93c1.07,-8.62 16.96,-86.77 16.96,-86.77zm-2631.49 -22.12c-14.37,2.86 -23.55,-1.16 -38.08,3.73 -35.16,11.83 -46.66,9.89 -89.91,34.58 -34.8,19.87 -65.16,43.62 -92.82,75.99 -39.38,46.08 -62.94,89.43 -82.32,146.03 -10.04,29.32 -17.38,48.33 -23.54,82.92 -18.2,102.08 -8.93,204.8 40.6,273.49 11.69,16.21 26.62,31.62 40.55,42.38 56.04,43.3 130.59,51.87 207.37,46.62 18.21,-1.25 53.72,-8.75 68.38,-14.47l29.55 -11.85c6.17,-2.75 8.6,-2.93 14.83,-6 45.61,-22.56 75.39,-48.44 106.27,-83.27 39.89,-44.97 77.67,-114.2 93.08,-176.58 1.47,-5.96 3.36,-9.85 5.16,-15.54 15.36,-48.62 21.7,-135.96 14.15,-188.76 -9.66,-67.64 -34.9,-127.71 -86.54,-165.35 -8.72,-6.35 -14.93,-11.21 -24.61,-16.66 -8.94,-5.03 -20.15,-9.72 -30.35,-14.19 -32.93,-14.42 -109,-21.57 -151.75,-13.07l-0.01 0.01zm29.39 14.4c33.17,-4.16 72.21,5.3 103.89,14.17 13.09,3.67 15.92,5.74 27.26,11.24 118.96,57.64 131.94,226.46 98.59,344.3 -22.6,79.86 -48.81,148.47 -106.56,207.32 -22.62,23.04 -55.77,50.49 -90.34,66.52 -19.61,9.1 -70.87,27.23 -90.99,27.58 -28,0.5 -96.46,4.41 -116.31,-2.47 -57.67,-19.98 -101.27,-37.07 -135.94,-100.98 -11.19,-20.63 -15.98,-33.71 -21.74,-58.3 -12.6,-53.81 -4.64,-19.41 -9.09,-68.01 -10.49,-114.37 40.95,-259.82 122.68,-345.24 66.78,-69.8 126.46,-84.57 218.55,-96.13l0 -0z"/>
   <path id="_1" class="fil1" d="M4055.1 1248.39c31.56,17.69 22.11,-23.24 36.74,-87.18 8.62,-37.68 13.28,-78.29 21.23,-115.16 4.66,-21.61 2.68,-39.64 12.1,-56.1 7.3,-12.74 21.47,-27 29.71,-38.18 84.77,-114.96 182.01,-232.42 266.52,-346.9 8.34,-11.29 26.1,-27.01 26.33,-42.84 -21.99,-6.07 -27.98,9.99 -50.12,39.98 -12.8,17.33 -26.42,35.89 -39.79,52.02 -54.76,66.08 -143.28,188.04 -201.4,263.68 -16.48,21.46 -28.71,43.66 -45.49,49.24 -7.14,-18.38 -13.3,-34.36 -20.46,-50.63 -36.51,-83.02 -72.26,-181.84 -107.45,-263.05l-32.34 -77.03c-4.82,-11.37 -6.77,-17.11 -23.43,-15.49 -0.76,1.13 -7.28,4.3 -2.42,17.28 2.04,5.45 5.86,13.86 8.93,20.98l118.24 281.78c4.52,12.59 11.4,27.04 16.67,39.58 3.25,7.73 4.97,10.53 8.47,18.16 3.43,7.45 5.88,14.6 8.52,21.05 23.11,56.39 11.55,27.68 3.59,92.32 -3.89,31.61 -13.1,65.92 -17.98,97.38 -3.78,24.4 -16.68,78.33 -16.18,99.09l0 0zm2732.84 -652.57l-86.37 513.34c0,93.57 79.91,154.04 173.19,154.04 61.17,0 96.21,0.71 152.23,-22.62 126.47,-52.65 144.55,-159.99 162.58,-293.71 1.43,-10.64 71.52,-521.62 39.44,-348.56 -3.13,16.9 -8.37,40.55 -10.07,55.11 -9.14,78.02 -51.38,264 -56.78,325.38 -1.72,19.59 -6.98,32.43 -9.23,53.05 -14.16,130.31 -107.13,211.72 -236.7,211.72 -49.44,0 -79.5,1.6 -124.16,-22.12 -61.57,-32.71 -76.3,-101.17 -63.53,-166.63 15.97,-81.93 44.63,-233.23 54.52,-306.93 5.58,-41.54 21.38,-110.01 27.04,-153.68 7.28,-56.12 -10.81,-43.83 -22.16,1.6zm1256.94 652.57c25.98,12.67 20.93,-2.41 29.91,-41.17l30.96 -176.43c2.06,-14.72 2.2,-24.59 19.1,-24.59l165.89 0c15.26,0 68.86,103.83 79.22,121.55l55.58 95.47c6.57,10.55 10.75,26.29 22.79,28.6 29.52,5.64 7.8,-19.01 -12.34,-53.88 -17.75,-30.74 -101.52,-171.54 -109.71,-192.45 5.58,-1.85 12.55,-2.23 19.93,-3.83 9.05,-1.97 10.09,-4.29 19.59,-6.92 62.4,-17.34 107.21,-62.11 134.8,-119.98 39,-81.82 62.61,-246.66 -49.69,-295.94 -27.06,-11.88 -58.29,-15.44 -89.08,-15.44l-168.85 0c-30.85,0 -26.47,-4.14 -38.25,66.23l-22.2 131.83c-2.66,16.07 -5.85,27.28 -8.33,44.98l-79.35 441.98 0 0.01zm142.42 -669.26c48.44,-4.71 151.64,-2.97 196.85,4.21 53.27,8.45 96.88,25.51 117.27,83.93 28.71,82.24 -8.77,236.76 -99.26,289.64 -71.82,41.97 -180.3,35.47 -268.72,34.8 -32.59,-0.24 -16.6,-9.1 -8.54,-69.04 3.62,-26.96 10.88,-57.99 16.07,-84.83l29.36 -171.93c1.07,-8.62 16.96,-86.77 16.96,-86.77zm-2631.49 -22.12c-14.37,2.86 -23.55,-1.16 -38.08,3.73 -35.16,11.83 -46.66,9.89 -89.91,34.58 -34.8,19.87 -65.16,43.62 -92.82,75.99 -39.38,46.08 -62.94,89.43 -82.32,146.03 -10.04,29.32 -17.38,48.33 -23.54,82.92 -18.2,102.08 -8.93,204.8 40.6,273.49 11.69,16.21 26.62,31.62 40.55,42.38 56.04,43.3 130.59,51.87 207.37,46.62 18.21,-1.25 53.72,-8.75 68.38,-14.47l29.55 -11.85c6.17,-2.75 8.6,-2.93 14.83,-6 45.61,-22.56 75.39,-48.44 106.27,-83.27 39.89,-44.97 77.67,-114.2 93.08,-176.58 1.47,-5.96 3.36,-9.85 5.16,-15.54 15.36,-48.62 21.7,-135.96 14.15,-188.76 -9.66,-67.64 -34.9,-127.71 -86.54,-165.35 -8.72,-6.35 -14.93,-11.21 -24.61,-16.66 -8.94,-5.03 -20.15,-9.72 -30.35,-14.19 -32.93,-14.42 -109,-21.57 -151.75,-13.07l-0.01 0.01zm29.39 14.4c33.17,-4.16 72.21,5.3 103.89,14.17 13.09,3.67 15.92,5.74 27.26,11.24 118.96,57.64 131.94,226.46 98.59,344.3 -22.6,79.86 -48.81,148.47 -106.56,207.32 -22.62,23.04 -55.77,50.49 -90.34,66.52 -19.61,9.1 -70.87,27.23 -90.99,27.58 -28,0.5 -96.46,4.41 -116.31,-2.47 -57.67,-19.98 -101.27,-37.07 -135.94,-100.98 -11.19,-20.63 -15.98,-33.71 -21.74,-58.3 -12.6,-53.81 -4.64,-19.41 -9.09,-68.01 -10.49,-114.37 40.95,-259.82 122.68,-345.24 66.78,-69.8 126.46,-84.57 218.55,-96.13l0 -0z"/>
  </g>
  <g>
   <path class="fil2 str1" d="M3944.29 1959.35l0 1288.61c0,24.44 2.38,32.59 27.39,32.59l293.27 0c28.42,0 20.74,-34.01 20.74,-74.06 0,-45.92 -3.93,-282.74 1.05,-292.22 11.48,-21.84 240.55,-3.73 307.7,-12.14 22.91,-2.87 52.6,0.03 75.14,-5.03l131.83 -28.12c9.03,-3.12 21.15,-8.76 29.77,-11.73 12.93,-4.46 18.74,-4.24 30.88,-10.51l53.34 -26.66c41.35,-23.14 58.73,-30.95 95.97,-64.04l57.3 -63.99c5.84,-8.4 10.27,-17.19 15.58,-25.98 24.3,-40.23 21.51,-42.84 38.13,-80.36 2.81,-6.34 22.38,-88.05 22.38,-102.04l0 -136.27c0,-26.15 -12.05,-61.68 -17.7,-85.9l-12.73 -37.62c-15.44,-40.33 -51.2,-98.59 -80.89,-129.52 -47.27,-49.26 -107.06,-88.94 -172.2,-112.35 -10.11,-3.63 -8.54,-4.72 -17.5,-8.87 -20.44,-9.47 -26.35,-7.55 -40.36,-13.17 -15.48,-6.21 -26.32,-6.15 -41.96,-11.22 -65.77,-21.33 -54.82,-8.82 -86.97,-16.87 -82.08,-20.56 -265.77,-14.01 -353.22,-14.01 -24.54,0 -346.84,-3.74 -362.39,2.17 -15.99,6.07 -14.54,20.58 -14.54,39.31l-0.01 0zm858.19 473.97c-6.97,39.12 -3.74,55.11 -27.13,80.86 -38.78,42.69 -95.81,53.47 -153.45,60.17 -16.63,1.94 -29.39,6.51 -45.78,7.1 -18.49,0.67 -38.07,-0.93 -56.45,0.07 -68.11,3.66 -143.05,5 -213.36,2.69 -24.03,-0.79 -20.97,-10.31 -20.7,-32.33l0.05 -269.65c-0.13,-21.82 -4.11,-35.05 13.49,-39.65 13.76,-3.59 138.55,-1.77 158.34,-1.79l201.42 14.79c12.78,3.93 28.01,9.38 40.47,12.7 39.94,10.64 73.8,30.2 91.4,71.78 9.74,23.01 16.55,65.91 11.69,93.26l-0 0zm4539.21 -514.08c-53.27,8.21 -104.71,12.39 -153.43,25.09 -36.35,9.47 -68.04,16.45 -102.4,30.96 -114.55,48.38 -148.27,67.75 -242.34,160.65 -16.5,16.3 -26.3,28.61 -40.25,48.64l-35.07 53.75c-5.17,9.58 -10.16,18.07 -15.59,28.82 -5.41,10.7 -7.62,20.29 -13.05,31.51 -5.23,10.8 -9.3,20.92 -12.69,31.63 -31.28,98.92 -24.79,75.09 -40.61,181.57 -5.52,37.11 -6.58,136.12 -0.71,172.48 4.27,26.41 9.34,50.81 11.39,77.53 2.05,26.73 20.4,77.63 29.08,104.04 17.24,52.48 43.06,103.03 75.34,146.94 70.12,95.41 168.86,170.89 280.69,211.02l179.25 46c93.55,14.35 204.92,18.37 300.11,7.34l112.1 -21.1c13.82,-5.03 23.31,-4.22 35.83,-8.46 9.5,-3.22 22.61,-8.76 32.47,-12.01 14.37,-4.73 19.58,-4.09 34.05,-10.52 11.39,-5.06 18.42,-7.71 31.35,-12.95l114.33 -63.39c40.22,-29.98 60.04,-41.53 97.11,-83.68l57.85 -75.5 30.77 -57.98c30.39,-67.11 41.2,-91.93 56.19,-166.07l14.35 -118.92c-0.22,-37.36 2.44,-101.86 -3.92,-132.36 -7.77,-37.27 -5.2,-90.89 -27.55,-150.22 -9.46,-25.11 -13.49,-43.37 -24.07,-64.88 -5.48,-11.15 -9.52,-19.54 -14.01,-30.51 -11.91,-29.05 -32.29,-57.61 -50.34,-82.91 -50.79,-71.17 -114.53,-127.27 -190.36,-168.06 -56.12,-30.18 -40.3,-19.59 -91.57,-41.81 -11.06,-4.79 -20.71,-9.12 -32.47,-11.89l-71.32 -20.38c-25.19,-7.25 -121.88,-20.67 -153.21,-24.59 -27.63,-3.45 -151.5,-3.77 -177.31,0.2l0.01 0zm80.67 1040.96c-15.8,0 -26.15,-4.27 -40.31,-6.5 -15.2,-2.4 -29.55,-1.64 -43.63,-3.94 -51.42,-8.36 -24.04,-0.39 -79.36,-15.53 -50.71,-13.87 -92.24,-36.66 -124.99,-64.52 -40.88,-34.74 -57.23,-62.5 -79.69,-109.81 -21.93,-46.2 -28.68,-115.77 -27.29,-166.62 2.53,-92.9 12.82,-144.46 65.62,-220 9.77,-13.98 32.37,-35.22 48.78,-48.95 15.27,-12.78 38.47,-27.05 58.57,-36.28 9.87,-4.53 23,-11 32.92,-14.55 5.57,-1.99 12.5,-2.53 19.51,-4.24 10.97,-2.7 36.55,-14.37 54.55,-16.33 26.84,-2.93 117.12,-13.07 132.8,-11.59l127.43 14.56c12.28,3.19 24.2,7.96 36.03,11.42 68.28,19.99 127.85,53.58 170.04,114.11 22.54,32.35 36.66,55.98 45.85,96.41 5.66,24.9 15.59,53.37 15.49,79.85 -0.22,51.61 3.97,83.93 -8.13,137.61 -22.74,100.89 -72.17,168.24 -164.58,217.46 -8.65,4.61 -7.52,2.15 -18.01,5.78l-70.26 24.55c-29.22,6.41 -99.65,9.3 -107.64,10.83 -18.51,3.55 -21.94,6.28 -43.68,6.28l-0 0.01zm-3523.58 -1039.67c-105.5,14.44 -159.74,19.91 -255.9,57.03 -36.44,14.07 -54.93,20.95 -90.96,42.29 -63.31,37.5 -100.81,66.12 -150.07,119.65 -12.81,13.92 -30.04,33.81 -39.75,49.18 -6.61,10.45 -10.55,16.48 -18.13,26.21 -10.31,13.23 -37.63,70.99 -44.96,88.32 -29.5,69.79 -41,139.61 -52.24,214.14 -4.09,27.11 -2.98,150.87 2.05,176.25 7.65,38.69 9.31,75.62 21.34,111.93 3.67,11.07 4.48,22.93 8.79,35.78l23.85 64.93c60.32,140 177.93,249.14 316.79,308.29l65.83 23.13c45.86,19.47 170.71,41.01 223.52,42.89 39.82,1.42 184.77,3.61 220.8,-4.46 45.81,-10.26 69.91,-8.56 110.88,-22.23 13.17,-4.4 22.12,-2.64 36.57,-8.07 9.89,-3.71 23.65,-9.44 32.71,-11.66 31.06,-7.61 31.87,-12.83 47.17,-18 58.8,-19.86 134.65,-67.23 181.46,-109.03 4.7,-4.21 5.55,-6.19 10.09,-10.31 6.26,-5.7 6.45,-4.94 12.45,-11.54 8.95,-9.84 14.68,-13.61 23.19,-24.11l38.37 -50.41c7.91,-10.37 11.12,-13.86 18.47,-26.11 22.47,-37.45 28.33,-52.93 45.27,-87.92 34.45,-71.18 40.47,-144.54 50.81,-215.83 10.69,-73.67 -0.57,-249.2 -31.56,-324.13 -5.27,-12.74 -4.66,-22.32 -10.32,-34.24l-27.75 -61.07c-5.21,-10.22 -10.74,-17.08 -16.3,-28.08 -5.06,-10.01 -9.66,-18.37 -16,-28.49 -6.68,-10.68 -13.06,-15.96 -19.17,-25.45 -40.7,-63.13 -124.52,-127.84 -192.8,-165.42 -11.02,-6.07 -16.23,-10.03 -28.73,-15.66l-47.08 -18.24c-6.63,-2.97 -6.42,-3.93 -16,-7.48 -28.47,-10.56 -71.91,-20.29 -102.94,-30.58 -21.08,-6.99 -51.08,-8.14 -75.63,-13.15 -69.24,-14.09 -189.29,-17.19 -254.08,-8.32l-0.01 -0zm497.28 696.46c-4.94,44.5 -2.13,74.91 -19.84,123.47 -15.43,42.32 -20.58,53.09 -50.46,91.77 -36.12,46.75 -89.09,77.36 -143.84,96.21 -36.23,12.47 -76.6,22.78 -118.71,23.41 -35.95,0.54 -55.34,10.45 -88.99,8.17 -14.26,-0.97 -22.84,-5.99 -38.76,-7.5 -61.84,-5.87 -98.97,-8.4 -156.77,-33.33 -56.33,-24.3 -69.2,-36.16 -112.82,-79.77 -20.52,-20.51 -41.15,-60.91 -53.47,-88.75 -18.11,-40.93 -25.32,-123.99 -22.79,-169.23 1.82,-32.5 2.65,-54.26 9.1,-85.18 8.03,-38.42 11.91,-40.52 25.49,-69.34 10.69,-22.68 20.18,-42.91 35.22,-59.54 10.95,-12.11 36.39,-38.65 49.99,-47.8 77.11,-51.85 122.14,-59.76 212.29,-71.65 111.33,-14.68 72.56,-1.69 174.06,4.43 39.21,2.37 47.42,10.42 77.86,17.1 23.37,5.14 48.77,17.67 66.83,28.07 32.72,18.85 57.49,38.01 80.76,64.31 56.95,64.34 84.24,170.54 74.85,255.14l0 -0zm828.26 -65.17c0,-12.31 0.92,-15.65 5.32,-23.28 16,2.75 12.42,4.24 17.67,18.06l65.8 147.35c10.65,22.63 5.63,4.51 15.98,34.66l191 422.14c7.39,15.97 13.13,30.47 21.81,46.06 25.21,45.24 22.14,83.77 55.67,83.77l231.06 0c15.6,0 17.3,-1.7 22.69,-12.81l327.98 -726.76c3.22,-7.62 4.69,-15.06 16.59,-9.9 6.98,6.82 3.04,581.22 3.04,681.33 0,44 -8.17,68.14 26.66,68.14l287.34 0c25.62,0 28.04,-7.18 28.04,-32.59l-1.38 -1318.86c-6.8,-3.84 -14.78,-11.23 -26.66,-11.23l-393.99 0c-23.35,0 -29.66,22.3 -37.48,39.58l-97.33 210.81c-3.66,9.02 -8.61,16.02 -13.21,25.26 -4.45,8.94 -7.94,17.46 -11.78,26.79l-159.32 341.37c-4.49,11 -8.27,14.48 -13.27,25.11l-73.45 153.91c-11.4,-6.39 -54.91,-104.88 -64.95,-126.88 -3.87,-8.49 -7.95,-19.01 -11.76,-26.86 -2.34,-4.84 -4.47,-8.54 -7.01,-13.7 -1.83,-3.71 -2.98,-7.34 -5.19,-12.63l-25.61 -51.3c-5.79,-11.15 -6.46,-16.04 -11.15,-27.34 -18.62,-44.83 -57.52,-116.38 -73.91,-157.1l-36.35 -79.37c-3.2,-7.53 -3.81,-6.37 -7.09,-13.4 -1.89,-4.02 -3.1,-7.87 -5.33,-12.6 -4.11,-8.72 -8.41,-18.52 -11.94,-26.66l-93.1 -197.03c-13.81,-29.66 -25.99,-77.98 -52.43,-77.98l-393.99 0c-16.44,0 -29.62,7.24 -29.62,23.7l0 1315.27c0,21.53 8.57,23.7 29.62,23.7l284.38 0c27.13,0 27.08,-7.14 27.08,-32.59l-0.42 -696.15 -0 0.01z"/>
   <path id="_1_0" class="fil0" d="M3944.29 1959.35l0 1288.61c0,24.44 2.38,32.59 27.39,32.59l293.27 0c28.42,0 20.74,-34.01 20.74,-74.06 0,-45.92 -3.93,-282.74 1.05,-292.22 11.48,-21.84 240.55,-3.73 307.7,-12.14 22.91,-2.87 52.6,0.03 75.14,-5.03l131.83 -28.12c9.03,-3.12 21.15,-8.76 29.77,-11.73 12.93,-4.46 18.74,-4.24 30.88,-10.51l53.34 -26.66c41.35,-23.14 58.73,-30.95 95.97,-64.04l57.3 -63.99c5.84,-8.4 10.27,-17.19 15.58,-25.98 24.3,-40.23 21.51,-42.84 38.13,-80.36 2.81,-6.34 22.38,-88.05 22.38,-102.04l0 -136.27c0,-26.15 -12.05,-61.68 -17.7,-85.9l-12.73 -37.62c-15.44,-40.33 -51.2,-98.59 -80.89,-129.52 -47.27,-49.26 -107.06,-88.94 -172.2,-112.35 -10.11,-3.63 -8.54,-4.72 -17.5,-8.87 -20.44,-9.47 -26.35,-7.55 -40.36,-13.17 -15.48,-6.21 -26.32,-6.15 -41.96,-11.22 -65.77,-21.33 -54.82,-8.82 -86.97,-16.87 -82.08,-20.56 -265.77,-14.01 -353.22,-14.01 -24.54,0 -346.84,-3.74 -362.39,2.17 -15.99,6.07 -14.54,20.58 -14.54,39.31l-0.01 0zm858.19 473.97c-6.97,39.12 -3.74,55.11 -27.13,80.86 -38.78,42.69 -95.81,53.47 -153.45,60.17 -16.63,1.94 -29.39,6.51 -45.78,7.1 -18.49,0.67 -38.07,-0.93 -56.45,0.07 -68.11,3.66 -143.05,5 -213.36,2.69 -24.03,-0.79 -20.97,-10.31 -20.7,-32.33l0.05 -269.65c-0.13,-21.82 -4.11,-35.05 13.49,-39.65 13.76,-3.59 138.55,-1.77 158.34,-1.79l201.42 14.79c12.78,3.93 28.01,9.38 40.47,12.7 39.94,10.64 73.8,30.2 91.4,71.78 9.74,23.01 16.55,65.91 11.69,93.26l-0 0zm4539.21 -514.08c-53.27,8.21 -104.71,12.39 -153.43,25.09 -36.35,9.47 -68.04,16.45 -102.4,30.96 -114.55,48.38 -148.27,67.75 -242.34,160.65 -16.5,16.3 -26.3,28.61 -40.25,48.64l-35.07 53.75c-5.17,9.58 -10.16,18.07 -15.59,28.82 -5.41,10.7 -7.62,20.29 -13.05,31.51 -5.23,10.8 -9.3,20.92 -12.69,31.63 -31.28,98.92 -24.79,75.09 -40.61,181.57 -5.52,37.11 -6.58,136.12 -0.71,172.48 4.27,26.41 9.34,50.81 11.39,77.53 2.05,26.73 20.4,77.63 29.08,104.04 17.24,52.48 43.06,103.03 75.34,146.94 70.12,95.41 168.86,170.89 280.69,211.02l179.25 46c93.55,14.35 204.92,18.37 300.11,7.34l112.1 -21.1c13.82,-5.03 23.31,-4.22 35.83,-8.46 9.5,-3.22 22.61,-8.76 32.47,-12.01 14.37,-4.73 19.58,-4.09 34.05,-10.52 11.39,-5.06 18.42,-7.71 31.35,-12.95l114.33 -63.39c40.22,-29.98 60.04,-41.53 97.11,-83.68l57.85 -75.5 30.77 -57.98c30.39,-67.11 41.2,-91.93 56.19,-166.07l14.35 -118.92c-0.22,-37.36 2.44,-101.86 -3.92,-132.36 -7.77,-37.27 -5.2,-90.89 -27.55,-150.22 -9.46,-25.11 -13.49,-43.37 -24.07,-64.88 -5.48,-11.15 -9.52,-19.54 -14.01,-30.51 -11.91,-29.05 -32.29,-57.61 -50.34,-82.91 -50.79,-71.17 -114.53,-127.27 -190.36,-168.06 -56.12,-30.18 -40.3,-19.59 -91.57,-41.81 -11.06,-4.79 -20.71,-9.12 -32.47,-11.89l-71.32 -20.38c-25.19,-7.25 -121.88,-20.67 -153.21,-24.59 -27.63,-3.45 -151.5,-3.77 -177.31,0.2l0.01 0zm80.67 1040.96c-15.8,0 -26.15,-4.27 -40.31,-6.5 -15.2,-2.4 -29.55,-1.64 -43.63,-3.94 -51.42,-8.36 -24.04,-0.39 -79.36,-15.53 -50.71,-13.87 -92.24,-36.66 -124.99,-64.52 -40.88,-34.74 -57.23,-62.5 -79.69,-109.81 -21.93,-46.2 -28.68,-115.77 -27.29,-166.62 2.53,-92.9 12.82,-144.46 65.62,-220 9.77,-13.98 32.37,-35.22 48.78,-48.95 15.27,-12.78 38.47,-27.05 58.57,-36.28 9.87,-4.53 23,-11 32.92,-14.55 5.57,-1.99 12.5,-2.53 19.51,-4.24 10.97,-2.7 36.55,-14.37 54.55,-16.33 26.84,-2.93 117.12,-13.07 132.8,-11.59l127.43 14.56c12.28,3.19 24.2,7.96 36.03,11.42 68.28,19.99 127.85,53.58 170.04,114.11 22.54,32.35 36.66,55.98 45.85,96.41 5.66,24.9 15.59,53.37 15.49,79.85 -0.22,51.61 3.97,83.93 -8.13,137.61 -22.74,100.89 -72.17,168.24 -164.58,217.46 -8.65,4.61 -7.52,2.15 -18.01,5.78l-70.26 24.55c-29.22,6.41 -99.65,9.3 -107.64,10.83 -18.51,3.55 -21.94,6.28 -43.68,6.28l-0 0.01zm-3523.58 -1039.67c-105.5,14.44 -159.74,19.91 -255.9,57.03 -36.44,14.07 -54.93,20.95 -90.96,42.29 -63.31,37.5 -100.81,66.12 -150.07,119.65 -12.81,13.92 -30.04,33.81 -39.75,49.18 -6.61,10.45 -10.55,16.48 -18.13,26.21 -10.31,13.23 -37.63,70.99 -44.96,88.32 -29.5,69.79 -41,139.61 -52.24,214.14 -4.09,27.11 -2.98,150.87 2.05,176.25 7.65,38.69 9.31,75.62 21.34,111.93 3.67,11.07 4.48,22.93 8.79,35.78l23.85 64.93c60.32,140 177.93,249.14 316.79,308.29l65.83 23.13c45.86,19.47 170.71,41.01 223.52,42.89 39.82,1.42 184.77,3.61 220.8,-4.46 45.81,-10.26 69.91,-8.56 110.88,-22.23 13.17,-4.4 22.12,-2.64 36.57,-8.07 9.89,-3.71 23.65,-9.44 32.71,-11.66 31.06,-7.61 31.87,-12.83 47.17,-18 58.8,-19.86 134.65,-67.23 181.46,-109.03 4.7,-4.21 5.55,-6.19 10.09,-10.31 6.26,-5.7 6.45,-4.94 12.45,-11.54 8.95,-9.84 14.68,-13.61 23.19,-24.11l38.37 -50.41c7.91,-10.37 11.12,-13.86 18.47,-26.11 22.47,-37.45 28.33,-52.93 45.27,-87.92 34.45,-71.18 40.47,-144.54 50.81,-215.83 10.69,-73.67 -0.57,-249.2 -31.56,-324.13 -5.27,-12.74 -4.66,-22.32 -10.32,-34.24l-27.75 -61.07c-5.21,-10.22 -10.74,-17.08 -16.3,-28.08 -5.06,-10.01 -9.66,-18.37 -16,-28.49 -6.68,-10.68 -13.06,-15.96 -19.17,-25.45 -40.7,-63.13 -124.52,-127.84 -192.8,-165.42 -11.02,-6.07 -16.23,-10.03 -28.73,-15.66l-47.08 -18.24c-6.63,-2.97 -6.42,-3.93 -16,-7.48 -28.47,-10.56 -71.91,-20.29 -102.94,-30.58 -21.08,-6.99 -51.08,-8.14 -75.63,-13.15 -69.24,-14.09 -189.29,-17.19 -254.08,-8.32l-0.01 -0zm497.28 696.46c-4.94,44.5 -2.13,74.91 -19.84,123.47 -15.43,42.32 -20.58,53.09 -50.46,91.77 -36.12,46.75 -89.09,77.36 -143.84,96.21 -36.23,12.47 -76.6,22.78 -118.71,23.41 -35.95,0.54 -55.34,10.45 -88.99,8.17 -14.26,-0.97 -22.84,-5.99 -38.76,-7.5 -61.84,-5.87 -98.97,-8.4 -156.77,-33.33 -56.33,-24.3 -69.2,-36.16 -112.82,-79.77 -20.52,-20.51 -41.15,-60.91 -53.47,-88.75 -18.11,-40.93 -25.32,-123.99 -22.79,-169.23 1.82,-32.5 2.65,-54.26 9.1,-85.18 8.03,-38.42 11.91,-40.52 25.49,-69.34 10.69,-22.68 20.18,-42.91 35.22,-59.54 10.95,-12.11 36.39,-38.65 49.99,-47.8 77.11,-51.85 122.14,-59.76 212.29,-71.65 111.33,-14.68 72.56,-1.69 174.06,4.43 39.21,2.37 47.42,10.42 77.86,17.1 23.37,5.14 48.77,17.67 66.83,28.07 32.72,18.85 57.49,38.01 80.76,64.31 56.95,64.34 84.24,170.54 74.85,255.14l0 -0zm828.26 -65.17c0,-12.31 0.92,-15.65 5.32,-23.28 16,2.75 12.42,4.24 17.67,18.06l65.8 147.35c10.65,22.63 5.63,4.51 15.98,34.66l191 422.14c7.39,15.97 13.13,30.47 21.81,46.06 25.21,45.24 22.14,83.77 55.67,83.77l231.06 0c15.6,0 17.3,-1.7 22.69,-12.81l327.98 -726.76c3.22,-7.62 4.69,-15.06 16.59,-9.9 6.98,6.82 3.04,581.22 3.04,681.33 0,44 -8.17,68.14 26.66,68.14l287.34 0c25.62,0 28.04,-7.18 28.04,-32.59l-1.38 -1318.86c-6.8,-3.84 -14.78,-11.23 -26.66,-11.23l-393.99 0c-23.35,0 -29.66,22.3 -37.48,39.58l-97.33 210.81c-3.66,9.02 -8.61,16.02 -13.21,25.26 -4.45,8.94 -7.94,17.46 -11.78,26.79l-159.32 341.37c-4.49,11 -8.27,14.48 -13.27,25.11l-73.45 153.91c-11.4,-6.39 -54.91,-104.88 -64.95,-126.88 -3.87,-8.49 -7.95,-19.01 -11.76,-26.86 -2.34,-4.84 -4.47,-8.54 -7.01,-13.7 -1.83,-3.71 -2.98,-7.34 -5.19,-12.63l-25.61 -51.3c-5.79,-11.15 -6.46,-16.04 -11.15,-27.34 -18.62,-44.83 -57.52,-116.38 -73.91,-157.1l-36.35 -79.37c-3.2,-7.53 -3.81,-6.37 -7.09,-13.4 -1.89,-4.02 -3.1,-7.87 -5.33,-12.6 -4.11,-8.72 -8.41,-18.52 -11.94,-26.66l-93.1 -197.03c-13.81,-29.66 -25.99,-77.98 -52.43,-77.98l-393.99 0c-16.44,0 -29.62,7.24 -29.62,23.7l0 1315.27c0,21.53 8.57,23.7 29.62,23.7l284.38 0c27.13,0 27.08,-7.14 27.08,-32.59l-0.42 -696.15 -0 0.01z"/>
  </g>
 </g>
</svg>
